<?xml version="1.0" encoding="iso-8859-1"?>
<!-- Generator: Adobe Illustrator 19.0.0, SVG Export Plug-In . SVG Version: 6.00 Build 0)  -->
<svg version="1.1" id="Capa_1" xmlns="http://www.w3.org/2000/svg" xmlns:xlink="http://www.w3.org/1999/xlink" x="0px" y="0px"
	 viewBox="0 0 480 480" style="enable-background:new 0 0 480 480;" xml:space="preserve">
<path style="fill:#F8C09C;" d="M472,207.499c-33.765,0.008-65.035,17.779-82.32,46.784c-35.694-20.779-76.383-31.423-117.68-30.784
	c-46.552-1.034-92.224,12.78-130.4,39.44l-8-28c-8.774-30.753-7.086-63.55,4.8-93.24l5.6-14.2h88l32-80l-88-32l-88,80
	L12.344,338.931C9.473,347.252,8.005,355.992,8,364.795v58.72c31.791,10.595,65.082,15.997,98.592,16H166.4
	c32.831,16.171,69.005,24.393,105.6,24c72.24,0,134.288-29.688,161.4-72.144c12.162,5.363,25.308,8.132,38.6,8.128V207.499z"/>
<path style="fill:#DD1C4B;" d="M271.664,423.995l-69.192-69.56c-14.344-14.422-17.088-36.733-6.664-54.2l0.04-0.056
	c3.699-6.203,8.871-11.399,15.056-15.128c17.357-10.472,39.622-7.73,53.92,6.64l6.84,6.88l6.872-6.904
	c14.278-14.357,36.518-17.099,53.856-6.64c6.21,3.748,11.4,8.969,15.112,15.2v0.064c10.41,17.447,7.67,39.73-6.656,54.136
	L271.664,423.995z"/>
<path d="M336.52,278.171c-20.485-12.399-46.796-9.156-63.656,7.848l-1.2,1.208l-1.168-1.176
	c-20.254-20.361-53.178-20.447-73.539-0.193c-3.091,3.075-5.783,6.527-8.013,10.273c-12.318,20.602-9.082,46.936,7.856,63.944
	l69.184,69.6c3.116,3.133,8.181,3.146,11.314,0.03c0.01-0.01,0.02-0.02,0.03-0.03l69.224-69.6
	c20.429-20.541,20.339-53.754-0.203-74.184c-2.961-2.945-6.264-5.526-9.837-7.688L336.52,278.171z M335.2,348.795l-63.552,63.888
	l-63.496-63.888c-11.788-11.846-14.029-30.184-5.44-44.52c10.184-17.076,32.282-22.664,49.358-12.481
	c2.585,1.542,4.967,3.402,7.09,5.537l6.832,6.88c3.116,3.133,8.181,3.146,11.314,0.03c0.01-0.01,0.02-0.02,0.03-0.03l6.872-6.904
	c11.666-11.773,29.88-14.019,44.056-5.432c17.223,10.437,22.725,32.859,12.288,50.082C339.047,344.441,337.25,346.737,335.2,348.795
	z"/>
<path d="M472,199.995c-33.77-0.119-65.454,16.321-84.8,44c-35.444-18.848-75.059-28.477-115.2-28
	c-44.36-0.638-87.991,11.315-125.832,34.472l-4.928-17.24c-8.294-29.044-6.707-60.02,4.512-88.064l3.688-9.168H232
	c3.272,0.003,6.215-1.987,7.432-5.024l32-80c1.644-4.101-0.349-8.758-4.45-10.402c-0.082-0.033-0.164-0.064-0.246-0.094l-88-32
	c-2.794-1.017-5.921-0.401-8.12,1.6l-88,80c-1.054,0.959-1.833,2.183-2.256,3.544L4.8,336.835c-3.164,9.149-4.786,18.76-4.8,28.44
	v58.72c-0.001,3.445,2.204,6.503,5.472,7.592c32.614,10.881,66.771,16.422,101.152,16.408h57.888
	c33.5,16.178,70.288,24.392,107.488,24c69.768,0,133.36-27.4,164.392-70.312c11.404,4.188,23.459,6.325,35.608,6.312
	c4.418,0,8-3.582,8-8v-192C480,203.576,476.418,199.995,472,199.995z M464,391.635c-9.45-0.866-18.697-3.266-27.376-7.104
	c-3.612-1.591-7.844-0.31-9.968,3.016c-26.528,41.584-87.24,68.448-154.656,68.448c-35.33,0.422-70.26-7.5-101.952-23.12
	c-1.129-0.578-2.379-0.88-3.648-0.88h-59.776C75.89,432.007,45.333,427.346,16,418.171v-52.896c0.016-7.99,1.368-15.92,4-23.464
	l75.032-241.36l82.8-75.288l44.856,16.312l-19.936,46.52H184v16h24c3.2,0,6.091-1.907,7.352-4.848l22.4-52.192l15.784,5.736
	l-26.928,67.304H144c-3.272-0.003-6.215,1.987-7.432,5.024l-5.68,14.2c-12.527,31.338-14.297,65.948-5.032,98.4l8,27.88
	c-1.6,1.96-3.112,4-4.52,6.12c-5.858,8.739-9.935,18.548-12,28.864l-5.16,25.912c-0.863,4.332,1.948,8.543,6.28,9.408
	c0.507,0.117,1.024,0.181,1.544,0.192c3.799-0.003,7.072-2.678,7.832-6.4l5.192-25.936c3.358-16.773,13.24-31.526,27.472-41.016
	l11.936-7.96c0.483-0.386,0.921-0.826,1.304-1.312c30.761-14.335,64.328-21.637,98.264-21.376
	c39.825-0.614,79.066,9.618,113.52,29.6c3.765,2.312,8.691,1.134,11.004-2.631c0.015-0.024,0.03-0.049,0.044-0.073
	c14.312-24.215,39.414-40.053,67.432-42.544L464,391.635z"/>
<g>
</g>
<g>
</g>
<g>
</g>
<g>
</g>
<g>
</g>
<g>
</g>
<g>
</g>
<g>
</g>
<g>
</g>
<g>
</g>
<g>
</g>
<g>
</g>
<g>
</g>
<g>
</g>
<g>
</g>
</svg>
